<svg width="46" height="12" viewBox="0 0 46 12" fill="none" xmlns="http://www.w3.org/2000/svg">
<path d="M0 11.7972V0.202816H8.86581V2.26479H2.42677V4.8507H8.1216V6.89577H2.42677V9.71831H8.96288V11.7972H0Z" fill="url(#paint0_linear_15585_131451)"/>
<path d="M10.7201 11.7972V0.202816H15.2501C16.4042 0.202816 17.3857 0.411267 18.1946 0.828168C19.0035 1.24507 19.6237 1.88169 20.0551 2.73803C20.4973 3.5831 20.7185 4.67042 20.7185 6C20.7185 7.31831 20.4973 8.40563 20.0551 9.26197C19.6237 10.1183 19.0035 10.7549 18.1946 11.1718C17.3857 11.5887 16.4042 11.7972 15.2501 11.7972H10.7201ZM13.1307 9.71831H15.2339C15.7193 9.71831 16.1507 9.64507 16.5282 9.49859C16.9057 9.35211 17.2185 9.13803 17.4666 8.85634C17.7146 8.56338 17.9034 8.20282 18.0328 7.77465C18.1623 7.33521 18.227 6.82817 18.227 6.25352V5.74648C18.227 5.17183 18.1623 4.67042 18.0328 4.24225C17.9034 3.80282 17.7146 3.44225 17.4666 3.16056C17.2185 2.86761 16.9057 2.64789 16.5282 2.50141C16.1507 2.34366 15.7193 2.26479 15.2339 2.26479H13.1307V9.71831Z" fill="url(#paint1_linear_15585_131451)"/>
<path d="M22.3567 11.7972V0.202816H24.7672V11.7972H22.3567Z" fill="url(#paint2_linear_15585_131451)"/>
<path d="M29.6334 11.7972V2.31549H26.0742V0.202816H35.6357V2.31549H32.0602V11.7972H29.6334Z" fill="url(#paint3_linear_15585_131451)"/>
<path d="M41.2597 12C40.6126 12 39.9978 11.9324 39.4154 11.7972C38.8329 11.662 38.3152 11.4479 37.8622 11.1549C37.42 10.8507 37.0695 10.4732 36.8106 10.0225C36.5625 9.56056 36.4385 9.00282 36.4385 8.3493C36.4385 8.29296 36.4385 8.23662 36.4385 8.18028C36.4385 8.11268 36.4439 8.06197 36.4547 8.02817H38.8491C38.8383 8.06197 38.8329 8.10704 38.8329 8.16338C38.8329 8.21972 38.8329 8.27042 38.8329 8.31549C38.8329 8.67606 38.9246 8.98028 39.108 9.22817C39.3021 9.47606 39.5825 9.66197 39.9492 9.78592C40.316 9.90986 40.742 9.97183 41.2273 9.97183C41.5401 9.97183 41.8152 9.95493 42.0524 9.92113C42.3005 9.87606 42.5162 9.81972 42.6996 9.75211C42.8937 9.67324 43.0501 9.5831 43.1688 9.48169C43.2982 9.38028 43.3899 9.26197 43.4438 9.12676C43.5085 8.99155 43.5409 8.83944 43.5409 8.67042C43.5409 8.3662 43.4438 8.11831 43.2497 7.92676C43.0663 7.73521 42.8074 7.57183 42.4731 7.43662C42.1495 7.30141 41.7828 7.17746 41.373 7.06479C40.9631 6.95211 40.5425 6.83944 40.111 6.72676C39.6796 6.60282 39.259 6.45634 38.8491 6.28732C38.4393 6.10704 38.0725 5.89296 37.749 5.64507C37.4254 5.39718 37.1665 5.08169 36.9724 4.69859C36.7783 4.31549 36.6812 3.85352 36.6812 3.31268C36.6812 2.73803 36.7944 2.24225 37.0209 1.82535C37.2582 1.40845 37.5872 1.06479 38.0078 0.794366C38.4285 0.523944 38.9138 0.32676 39.4639 0.202816C40.014 0.0676054 40.6126 0 41.2597 0C41.8637 0 42.4353 0.0676054 42.9746 0.202816C43.5139 0.32676 43.9885 0.529577 44.3983 0.811267C44.8082 1.09296 45.1264 1.44789 45.3529 1.87606C45.5901 2.30422 45.7088 2.81127 45.7088 3.39718V3.6H43.3629V3.46479C43.3629 3.16056 43.2766 2.90141 43.104 2.68732C42.9315 2.47324 42.6888 2.30422 42.376 2.18028C42.0632 2.05634 41.6965 1.99437 41.2759 1.99437C40.8229 1.99437 40.4346 2.03944 40.111 2.12958C39.7982 2.21972 39.5556 2.35493 39.383 2.53521C39.2212 2.70422 39.1403 2.90704 39.1403 3.14366C39.1403 3.41408 39.232 3.63944 39.4154 3.81972C39.6095 3.98873 39.8684 4.14084 40.1919 4.27606C40.5263 4.4 40.8984 4.51268 41.3082 4.61408C41.7181 4.71549 42.1387 4.82817 42.5702 4.95211C43.0016 5.07606 43.4222 5.22253 43.8321 5.39155C44.2419 5.56056 44.6087 5.77465 44.9322 6.0338C45.2558 6.28169 45.5146 6.59155 45.7088 6.96338C45.9029 7.33521 46 7.78028 46 8.29859C46 9.18873 45.7951 9.90422 45.3852 10.4451C44.9754 10.9859 44.4145 11.3803 43.7027 11.6282C42.9908 11.8761 42.1765 12 41.2597 12Z" fill="url(#paint4_linear_15585_131451)"/>
<defs>
<linearGradient id="paint0_linear_15585_131451" x1="50.5416" y1="19.1212" x2="20.9906" y2="-37.9707" gradientUnits="userSpaceOnUse">
<stop offset="0.214258" stop-color="#DB7E37"/>
<stop offset="0.807941" stop-color="#F9C446"/>
</linearGradient>
<linearGradient id="paint1_linear_15585_131451" x1="50.5416" y1="19.1212" x2="20.9906" y2="-37.9707" gradientUnits="userSpaceOnUse">
<stop offset="0.214258" stop-color="#DB7E37"/>
<stop offset="0.807941" stop-color="#F9C446"/>
</linearGradient>
<linearGradient id="paint2_linear_15585_131451" x1="50.5416" y1="19.1212" x2="20.9906" y2="-37.9707" gradientUnits="userSpaceOnUse">
<stop offset="0.214258" stop-color="#DB7E37"/>
<stop offset="0.807941" stop-color="#F9C446"/>
</linearGradient>
<linearGradient id="paint3_linear_15585_131451" x1="50.5416" y1="19.1212" x2="20.9906" y2="-37.9707" gradientUnits="userSpaceOnUse">
<stop offset="0.214258" stop-color="#DB7E37"/>
<stop offset="0.807941" stop-color="#F9C446"/>
</linearGradient>
<linearGradient id="paint4_linear_15585_131451" x1="50.5416" y1="19.1212" x2="20.9906" y2="-37.9707" gradientUnits="userSpaceOnUse">
<stop offset="0.214258" stop-color="#DB7E37"/>
<stop offset="0.807941" stop-color="#F9C446"/>
</linearGradient>
</defs>
</svg>
