<svg width="60" height="56" viewBox="0 0 60 56" fill="none" xmlns="http://www.w3.org/2000/svg">
<path d="M39.0648 56C36.3896 55.9642 33.7303 55.584 31.1534 54.8687C26.3186 53.5546 21.5368 51.1897 18.6845 48.6978C13.8872 44.5105 11.8579 38.5411 13.6378 33.8455C14.7132 31.0033 18.0892 26.2395 28.6004 26.2395H44.0804C43.5905 24.3754 43.0058 22.5371 42.3286 20.7319C38.5661 10.7673 33.1234 5.7153 26.1502 5.7153C21.8641 5.7153 18.2824 7.93757 15.1995 12.5092C12.5125 16.4981 10.3211 22.1483 8.69076 29.3018C5.84475 41.7985 5.74813 54.5278 5.74813 54.6549L0 54.6301C0 54.0877 0.0935056 41.219 3.06732 28.1209C4.85036 20.2608 7.3192 13.9504 10.4021 9.36019C14.5761 3.16139 19.8753 0 26.1502 0C35.6328 0 43.086 6.47465 47.7089 18.7235C48.6238 21.1811 49.3899 23.6909 50.0031 26.2395H60V31.9548H51.1783C51.8597 35.854 52.2329 39.8002 52.2943 43.7574C52.2943 48.9427 49.9938 52.8324 45.8167 54.7138C43.7001 55.6622 41.3373 56 39.0648 56ZM28.6097 31.9548C23.4507 31.9548 19.9532 33.3775 19.015 35.8601C18.0767 38.3427 19.5106 41.814 22.4719 44.402C24.682 46.3268 28.6814 48.2732 32.6683 49.3611C37.0761 50.5575 41.0037 50.6008 43.4445 49.513C44.7756 48.9148 46.5461 47.6533 46.5461 43.7636C46.4673 39.8007 46.0597 35.851 45.3273 31.9548H28.6097Z" fill="url(#paint0_angular_3175_116246)"/>
<defs>
<radialGradient id="paint0_angular_3175_116246" cx="0" cy="0" r="1" gradientUnits="userSpaceOnUse" gradientTransform="translate(33.5433 38.1176) rotate(-165.925) scale(35.7991 31.8556)">
<stop stop-color="#7E68B0"/>
<stop offset="0.184461" stop-color="#008AD2"/>
<stop offset="0.353157" stop-color="#21B24B"/>
<stop offset="0.519702" stop-color="#FFC40E"/>
<stop offset="0.687523" stop-color="#F6821F"/>
<stop offset="0.853193" stop-color="#EF4023"/>
<stop offset="1" stop-color="#7E68B0"/>
</radialGradient>
</defs>
</svg>
