<svg width="687" height="329" viewBox="0 0 687 329" fill="none" xmlns="http://www.w3.org/2000/svg"><g opacity=".6"><g opacity=".3"><path d="m593.989 128.59 6.482-9.48c5.077 3.413 13.046 2.3 17.038-2.383 1.956-2.284 3.244-5.409 4.615-8.703 1.118-2.688 2.272-5.481 3.904-8.184 4.274-7.058 11.282-12.405 19.235-14.643 4.015-1.126 7.987-1.441 11.839-1.732 4.35-.33 8.438-.65 11.828-2.16 3.136-1.405 5.796-3.97 7.293-7.057 1.341-2.792 1.9-6.172 2.476-9.745.446-2.71.897-5.523 1.727-8.351 1.966-6.696 6.273-11.472 12.159-15.047l6.728 5.172s-5.917 5.313-7.566 8.593c-1.719 3.44-2.023 7.18-2.629 10.923-.695 4.231-.5 9.034-2.586 13.334-2.663 5.504-7.403 10.095-13.017 12.601-5.216 2.33-10.533 2.734-15.67 3.13-3.428.265-6.665.514-9.585 1.335-5.147 1.453-9.691 4.906-12.45 9.483-1.19 1.965-2.131 4.227-3.129 6.642-1.655 3.985-3.352 8.095-6.493 11.773-7.79 9.163-22.262 11.192-32.199 4.499Z" fill="#03A9F4" fill-opacity=".5"/><path opacity=".5" d="M583.283 55.628c7.494-2.721 12.486 2.36 15.169 5.088.319.328.717.73 1.017 1.004.643-.14 1.378-.725 2.611-1.798 2.035-1.766 4.831-4.18 9.045-3.418 3.662.664 5.427 4.115 7.173 6.306 1.494 1.87 3.137 3.13 5.581 3.476 2.848.402 9.528-1.366 9.528-1.366l3.377 4.094s-6.237 2.544-9.538 3.11c-9.356 1.605-12.653-3.278-14.267-5.3-1.113-1.399-2.166-2.721-3.095-2.888-.678-.123-1.343.326-2.994 1.759-1.977 1.717-4.7 4.061-8.78 3.535-1.987-.253-3.395-1.678-4.874-3.186-2.626-2.671-4.566-4.35-7.428-3.303l-2.525-7.113Z" fill="#8EC4F5"/><path opacity=".5" d="M536.111 111.785c7.972.069 10.987-6.385 12.607-9.851.192-.416.433-.927.625-1.285.652-.083 1.54.224 3.061.825 2.506.988 5.947 2.332 9.667.21 3.231-1.847 3.746-5.689 4.663-8.336.785-2.26 1.914-3.996 4.103-5.137 2.551-1.328 9.439-1.887 9.439-1.887l1.82-4.985s-6.729-.32-10.03.246c-9.356 1.604-10.837 7.306-11.685 9.75-.584 1.69-1.136 3.288-1.957 3.754-.598.342-1.374.14-3.408-.66-2.436-.962-5.785-2.264-9.457-.409-1.789.9-2.642 2.713-3.534 4.628-1.586 3.394-2.856 5.622-5.903 5.589l-.011 7.548Z" fill="#F2698D"/><path d="M655.87 212.965c7.493-2.721 12.485 2.359 15.169 5.088.319.328.716.729 1.017 1.004.642-.139 1.377-.725 2.611-1.798 2.034-1.766 4.83-4.18 9.044-3.419 3.663.665 5.428 4.116 7.174 6.306 1.494 1.87 3.137 3.13 5.58 3.477 2.848.402 9.529-1.366 9.529-1.366l3.377 4.094s-6.238 2.544-9.539 3.11c-9.356 1.605-12.653-3.279-14.266-5.3-1.113-1.399-2.166-2.722-3.096-2.888-.678-.123-1.343.326-2.993 1.758-1.977 1.718-4.701 4.062-8.781 3.536-1.986-.253-3.394-1.678-4.873-3.186-2.627-2.671-4.567-4.35-7.429-3.303l-2.524-7.113Z" fill="#8EC4F5"/><path opacity=".5" d="m584.196 156.411 6.758-13.383 13.722 7.08-8.804 10.942-11.676-4.639Z" fill="#F2698D"/><path opacity=".5" d="m605.988 92.249 4.359-10.082a40.92 40.92 0 0 0 9.888 2.828l-1.7 10.847a52.337 52.337 0 0 1-12.547-3.593Z" fill="#069D98"/><path opacity=".5" d="M583.644 106.601a97.424 97.424 0 0 0 2.12-12.471l11.573-.77a106.744 106.744 0 0 1-2.338 13.802l-11.355-.561Z" fill="#F2698D"/><path opacity=".5" d="M609.743 75.123c-6.551 1.703-11.196 3.305-17.167 5.86l10.31 9.126 11.107-12.51-4.25-2.476Z" fill="#FFE033"/><path opacity=".5" d="m568.015 62.34.085-14.812-16.3-.093-.086 14.812 16.301.093Z" fill="#069D98"/><path d="m629.998 141.722 12.868 11.095-8.914 9.787-12.87-11.095 8.916-9.787Z" fill="gold"/><path opacity=".5" d="M563.74 147.145a130.396 130.396 0 0 0 11.647-9.533l9.792 8.827a141.276 141.276 0 0 1-12.945 10.579l-8.494-9.873Z" fill="#069D98"/></g></g><g opacity=".3"><path d="M583.788 200.558c9.536-21.627 32.363-38.934 61.072-46.297 25.94-6.648 53.613-5.163 75.841-3.965l-3.069 10.804c-21.271-1.138-45.656-.714-69.506 5.399-24.677 6.319-44.143 20.833-52.058 38.794l-12.28-4.735Z" fill="#03A9F4" fill-opacity=".3"/><path d="m555.947-23.296 11.325-11.72c55.07 53.26 121.532 48.541 154.093 38.533l5.795 11.494c-35.996 11.072-110.143 20.768-171.213-38.306Z" fill="#EF426F"/><path d="m593.048 51.2-.641 1.205c6.587-1.254 13.289-2.072 19.983-2.58 3.556-6.15 7.495-11.993 12.498-16.573.144-.127.291-.235.434-.363-7.416.155-14.951.579-22.471 1.455-3.776 5.588-6.911 11.418-9.803 16.855Zm34.249 151.534 3.41-12.795c6.948 1.92 14.284-1.944 18.827-6.188 5.905-5.52 10.021-13.323 13.996-20.883 4.262-8.114 9.089-17.301 16.741-24.365 14.053-12.988 34.055-14.551 50.952-5.524l-3.623 10.392c-12.171-6.49-28.327-4.409-38.449 4.928-5.988 5.518-10.058 13.296-14.023 20.821-4.276 8.133-9.116 17.339-16.655 24.383-9.103 8.49-21.05 12.036-31.176 9.231Z" fill="#FFE033"/><path d="M579.869-44.788c16.514-5.932 27.465 5.007 33.352 10.882.7.707 1.571 1.57 2.231 2.16 1.415-.304 3.037-1.575 5.76-3.902 4.491-3.83 10.664-9.064 19.934-7.45 8.056 1.41 11.916 8.852 15.744 13.57 3.275 4.029 6.882 6.739 12.258 7.47 6.265.85 20.983-3.018 20.983-3.018l7.404 8.819s-13.748 5.54-21.018 6.788c-20.606 3.533-27.827-6.992-31.365-11.347-2.439-3.014-4.747-5.864-6.792-6.216-1.492-.261-2.958.714-6.602 3.82-4.364 3.725-10.376 8.808-19.353 7.7-4.37-.531-7.46-3.599-10.704-6.846-5.762-5.752-10.02-9.363-16.327-7.083l-5.505-15.347Z" fill="#F2698D"/><path d="M632.696 61.346c7.972.07 10.987-6.384 12.607-9.85.192-.416.433-.927.625-1.286.652-.083 1.54.225 3.061.826 2.506.987 5.947 2.331 9.667.21 3.231-1.848 3.746-5.69 4.662-8.336.786-2.26 1.915-3.996 4.104-5.137 2.551-1.328 9.439-1.887 9.439-1.887l1.82-4.985s-6.729-.321-10.03.245c-9.356 1.604-10.837 7.307-11.685 9.75-.584 1.69-1.136 3.288-1.957 3.755-.598.342-1.374.14-3.408-.66-2.436-.962-5.786-2.264-9.457-.41-1.789.901-2.642 2.714-3.534 4.628-1.586 3.394-2.856 5.623-5.903 5.59l-.011 7.547Z" fill="#FFE033"/><path d="M650.817 120.587c-1.67-5.093-.897-9.742-.33-13.835l11.568 1.672s-1.956 4.309-.457 10.211l-10.781 1.952Zm-12.49-45.866-.222-10.695 12.479.195.229 10.71-12.486-.21Z" fill="#F2698D"/><path d="m681.759 182.514 13.232 6.41-7.013 14.084-13.232-6.413 7.013-14.081Z" fill="#069D98"/><path d="m666.471 74.988.183-12.423 8.507 1.185-.19 12.41-8.5-1.172Z" fill="#F2698D"/><path d="M660.046 108.083s.385 1.758.223 4.051c4.197.917 8.543 1.727 13.272 1.72.303-2.841-.446-4.952-.446-4.952l-13.049-.819Z" fill="#FFE033"/><path d="M666.032 104.749c1.479-4.89-1.718-9.585-1.718-9.585l11.931-4.072s4.267 4.752 1.518 11.406l-11.731 2.251ZM587.483 7.334l3.389 14.42-15.869 3.727-3.388-14.42 15.868-3.727Z" fill="#069D98"/><path d="m539.497 22.977-.893-1.033c6.7-.247 13.416-.945 20.054-1.945 4.839 5.202 9.983 10.02 15.882 13.366.168.093.335.166.504.258-7.264 1.504-14.704 2.772-22.229 3.596-4.928-4.605-9.285-9.588-13.318-14.242Z" fill="#FFE033"/></g><g opacity=".6"><g opacity=".3"><path d="m74.066 128.59-6.483-9.48c-5.076 3.413-13.045 2.3-17.037-2.383-1.956-2.284-3.244-5.409-4.615-8.703-1.118-2.688-2.273-5.481-3.904-8.184-4.274-7.058-11.283-12.405-19.236-14.643-4.014-1.126-7.986-1.441-11.838-1.732-4.35-.33-8.438-.65-11.829-2.16-3.135-1.405-5.795-3.97-7.293-7.057-1.34-2.792-1.9-6.172-2.475-9.745-.447-2.71-.898-5.523-1.727-8.351-1.967-6.696-6.274-11.472-12.16-15.047l-6.728 5.172s5.918 5.313 7.566 8.593c1.72 3.44 2.023 7.18 2.63 10.923.695 4.231.5 9.034 2.585 13.334 2.664 5.504 7.404 10.095 13.018 12.601 5.216 2.33 10.532 2.734 15.67 3.13 3.428.265 6.665.514 9.585 1.335 5.146 1.453 9.69 4.906 12.45 9.483 1.19 1.965 2.13 4.227 3.129 6.642 1.655 3.985 3.351 8.095 6.493 11.773 7.79 9.163 22.262 11.192 32.199 4.499Z" fill="#03A9F4" fill-opacity=".5"/><path opacity=".5" d="M84.771 55.628c-7.493-2.721-12.485 2.36-15.168 5.088-.32.328-.717.73-1.017 1.004-.643-.14-1.378-.725-2.611-1.798-2.035-1.766-4.831-4.18-9.045-3.418-3.663.664-5.428 4.115-7.174 6.306-1.494 1.87-3.136 3.13-5.58 3.476-2.848.402-9.529-1.366-9.529-1.366l-3.377 4.094s6.238 2.544 9.54 3.11c9.355 1.605 12.652-3.278 14.265-5.3 1.113-1.399 2.166-2.721 3.096-2.888.678-.123 1.343.326 2.993 1.759 1.977 1.717 4.701 4.061 8.78 3.535 1.987-.253 3.396-1.678 4.874-3.186 2.627-2.671 4.567-4.35 7.429-3.303l2.524-7.113Z" fill="#8EC4F5"/><path opacity=".5" d="M131.943 111.785c-7.972.069-10.986-6.385-12.607-9.851a25.913 25.913 0 0 0-.624-1.285c-.652-.083-1.541.224-3.061.825-2.507.988-5.948 2.332-9.667.21-3.232-1.847-3.746-5.689-4.663-8.336-.786-2.26-1.915-3.996-4.103-5.137-2.551-1.328-9.44-1.887-9.44-1.887l-1.82-4.985s6.73-.32 10.03.246c9.356 1.604 10.838 7.306 11.686 9.75.583 1.69 1.135 3.288 1.956 3.754.599.342 1.375.14 3.409-.66 2.436-.962 5.785-2.264 9.456-.409 1.789.9 2.642 2.713 3.534 4.628 1.587 3.394 2.857 5.622 5.904 5.589l.01 7.548Z" fill="#F2698D"/><path d="M12.185 212.965c-7.494-2.721-12.486 2.359-15.169 5.088-.32.328-.716.729-1.017 1.004-.642-.139-1.377-.725-2.61-1.798-2.035-1.766-4.832-4.18-9.046-3.419-3.662.665-5.427 4.116-7.173 6.306-1.494 1.87-3.137 3.13-5.58 3.477-2.848.402-9.529-1.366-9.529-1.366l-3.377 4.094s6.238 2.544 9.539 3.11c9.355 1.605 12.652-3.279 14.266-5.3 1.113-1.399 2.166-2.722 3.095-2.888.679-.123 1.343.326 2.994 1.758 1.977 1.718 4.7 4.062 8.78 3.536 1.987-.253 3.395-1.678 4.874-3.186 2.627-2.671 4.566-4.35 7.428-3.303l2.525-7.113Z" fill="#8EC4F5"/><path opacity=".5" d="m83.858 156.411-6.757-13.383-13.722 7.08 8.803 10.942 11.676-4.639Z" fill="#F2698D"/><path opacity=".5" d="m62.067 92.249-4.36-10.082a40.92 40.92 0 0 1-9.887 2.828l1.7 10.847a52.334 52.334 0 0 0 12.547-3.593Z" fill="#069D98"/><path opacity=".5" d="M84.41 106.601a97.372 97.372 0 0 1-2.12-12.471l-11.573-.77a107.065 107.065 0 0 0 2.338 13.802l11.356-.561Z" fill="#F2698D"/><path opacity=".5" d="M58.311 75.123c6.551 1.703 11.197 3.305 17.168 5.86l-10.31 9.126L54.062 77.6l4.25-2.476Z" fill="#FFE033"/><path opacity=".5" d="m100.04 62.34-.085-14.812 16.3-.093.085 14.812-16.3.093Z" fill="#069D98"/><path d="m38.057 141.722-12.869 11.095 8.915 9.787 12.87-11.095-8.916-9.787Z" fill="gold"/><path opacity=".5" d="M104.315 147.145a130.14 130.14 0 0 1-11.647-9.533l-9.792 8.827a141.14 141.14 0 0 0 12.945 10.579l8.494-9.873Z" fill="#069D98"/></g></g><g opacity=".3"><path d="M84.267 200.558c-9.536-21.627-32.363-38.934-61.072-46.297-25.94-6.648-53.614-5.163-75.842-3.965l3.07 10.804c21.27-1.138 45.656-.714 69.506 5.399 24.677 6.319 44.143 20.833 52.058 38.794l12.28-4.735Z" fill="#03A9F4" fill-opacity=".3"/><path d="m112.107-23.296-11.324-11.72C45.713 18.244-20.75 13.525-53.31 3.517l-5.796 11.494C-23.11 26.083 51.038 35.779 112.107-23.295Z" fill="#EF426F"/><path d="m75.007 51.2.64 1.205c-6.586-1.254-13.289-2.072-19.983-2.58-3.555-6.15-7.494-11.993-12.498-16.573-.143-.127-.29-.235-.433-.363 7.416.155 14.95.579 22.47 1.455 3.776 5.588 6.911 11.418 9.804 16.855Zm-34.25 151.534-3.41-12.795c-6.947 1.92-14.283-1.944-18.827-6.188-5.904-5.52-10.02-13.323-13.995-20.883-4.263-8.114-9.09-17.301-16.742-24.365-14.052-12.988-34.055-14.551-50.95-5.524l3.622 10.392c12.17-6.49 28.326-4.409 38.448 4.928 5.989 5.518 10.06 13.296 14.024 20.821 4.275 8.133 9.116 17.339 16.654 24.383 9.104 8.49 21.05 12.036 31.176 9.231Z" fill="#FFE033"/><path d="M88.186-44.788C71.672-50.72 60.72-39.78 54.834-33.906c-.7.707-1.572 1.57-2.231 2.16-1.416-.304-3.038-1.575-5.76-3.902-4.491-3.83-10.664-9.064-19.934-7.45-8.056 1.41-11.917 8.852-15.744 13.57-3.275 4.029-6.882 6.739-12.259 7.47-6.265.85-20.982-3.018-20.982-3.018l-7.405 8.819s13.749 5.54 21.02 6.788c20.604 3.533 27.826-6.992 31.363-11.347 2.44-3.014 4.748-5.864 6.793-6.216 1.492-.261 2.958.714 6.601 3.82 4.364 3.725 10.377 8.808 19.353 7.7 4.37-.531 7.46-3.599 10.705-6.846 5.762-5.752 10.02-9.363 16.327-7.083l5.505-15.347Z" fill="#F2698D"/><path d="M35.358 61.346c-7.972.07-10.986-6.384-12.607-9.85a26.857 26.857 0 0 0-.624-1.286c-.652-.083-1.54.225-3.061.826-2.507.987-5.948 2.331-9.667.21-3.232-1.848-3.746-5.69-4.663-8.336-.786-2.26-1.915-3.996-4.103-5.137-2.551-1.328-9.44-1.887-9.44-1.887l-1.82-4.985s6.73-.321 10.03.245c9.356 1.604 10.838 7.307 11.686 9.75.583 1.69 1.135 3.288 1.957 3.755.598.342 1.374.14 3.408-.66 2.436-.962 5.785-2.264 9.456-.41 1.79.901 2.642 2.714 3.534 4.628 1.587 3.394 2.857 5.623 5.904 5.59l.01 7.547Z" fill="#FFE033"/><path d="M17.238 120.587c1.67-5.093.897-9.742.33-13.835L6 108.424s1.956 4.309.457 10.211l10.781 1.952Zm12.49-45.866.221-10.695-12.478.195-.23 10.71 12.487-.21Zm-28.145.267-.182-12.423-8.507 1.185.19 12.41 8.5-1.172Z" fill="#F2698D"/><path d="M8.009 108.083s-.386 1.758-.223 4.051c-4.197.917-8.544 1.727-13.272 1.72-.304-2.841.445-4.952.445-4.952l13.05-.819Z" fill="#FFE033"/><path d="M2.023 104.749c-1.48-4.89 1.718-9.585 1.718-9.585L-8.19 91.092s-4.267 4.752-1.518 11.406l11.731 2.251ZM80.571 7.334l-3.388 14.42L93.05 25.48l3.389-14.42L80.57 7.333Z" fill="#069D98"/><path d="m128.557 22.977.894-1.033c-6.7-.247-13.416-.945-20.055-1.945-4.838 5.202-9.982 10.02-15.88 13.366-.17.093-.337.166-.505.258 7.264 1.504 14.703 2.772 22.229 3.596 4.928-4.605 9.285-9.588 13.317-14.242Z" fill="#FFE033"/></g></svg>