<svg width="21" height="20" viewBox="0 0 21 20" fill="none" xmlns="http://www.w3.org/2000/svg">
<path d="M4.21012 10H2.54346L10.0435 2.8125L17.5435 10H15.8768" fill="#ABABAB"/>
<path d="M4.21012 10H2.54346L10.0435 2.8125L17.5435 10H15.8768" stroke="#ABABAB" stroke-linecap="round" stroke-linejoin="round"/>
<mask id="path-3-inside-1_426_144385" fill="white">
<path d="M4.21008 10V15.5903C4.21008 16.0139 4.38568 16.4201 4.69824 16.7197C5.0108 17.0192 5.43472 17.1875 5.87675 17.1875H14.2101C14.6521 17.1875 15.076 17.0192 15.3886 16.7197C15.7012 16.4201 15.8767 16.0139 15.8767 15.5903V10"/>
</mask>
<path d="M4.21008 10V15.5903C4.21008 16.0139 4.38568 16.4201 4.69824 16.7197C5.0108 17.0192 5.43472 17.1875 5.87675 17.1875H14.2101C14.6521 17.1875 15.076 17.0192 15.3886 16.7197C15.7012 16.4201 15.8767 16.0139 15.8767 15.5903V10" fill="#ABABAB"/>
<path d="M6.21008 10C6.21008 8.89543 5.31465 8 4.21008 8C3.10551 8 2.21008 8.89543 2.21008 10H6.21008ZM4.21008 15.5903H2.21008H4.21008ZM17.8767 10C17.8767 8.89543 16.9813 8 15.8767 8C14.7722 8 13.8767 8.89543 13.8767 10H17.8767ZM2.21008 10V15.5903H6.21008V10H2.21008ZM2.21008 15.5903C2.21008 16.5724 2.618 17.4963 3.31443 18.1637L6.08205 15.2757C6.15335 15.344 6.21008 15.4553 6.21008 15.5903H2.21008ZM3.31443 18.1637C4.00796 18.8283 4.9311 19.1875 5.87675 19.1875V15.1875C5.93834 15.1875 6.01364 15.2101 6.08205 15.2757L3.31443 18.1637ZM5.87675 19.1875H14.2101V15.1875H5.87675V19.1875ZM14.2101 19.1875C15.1557 19.1875 16.0789 18.8283 16.7724 18.1637L14.0048 15.2757C14.0732 15.2101 14.1485 15.1875 14.2101 15.1875V19.1875ZM16.7724 18.1637C17.4688 17.4963 17.8767 16.5725 17.8767 15.5903H13.8767C13.8767 15.4553 13.9335 15.344 14.0048 15.2757L16.7724 18.1637ZM17.8767 15.5903V10H13.8767V15.5903H17.8767Z" fill="#ABABAB" mask="url(#path-3-inside-1_426_144385)"/>
<mask id="path-5-inside-2_426_144385" fill="white">
<path d="M7.54346 17.1875V12.3959C7.54346 11.9723 7.71905 11.566 8.03161 11.2665C8.34417 10.9669 8.7681 10.7986 9.21012 10.7986H10.8768C11.3188 10.7986 11.7427 10.9669 12.0553 11.2665C12.3679 11.566 12.5435 11.9723 12.5435 12.3959V17.1875"/>
</mask>
<path d="M7.54346 17.1875V12.3959C7.54346 11.9723 7.71905 11.566 8.03161 11.2665C8.34417 10.9669 8.7681 10.7986 9.21012 10.7986H10.8768C11.3188 10.7986 11.7427 10.9669 12.0553 11.2665C12.3679 11.566 12.5435 11.9723 12.5435 12.3959V17.1875" fill="#1C1C1C"/>
<path d="M6.54346 17.1875C6.54346 17.7398 6.99117 18.1875 7.54346 18.1875C8.09574 18.1875 8.54346 17.7398 8.54346 17.1875H6.54346ZM9.21012 10.7986V11.7986V10.7986ZM11.5435 17.1875C11.5435 17.7398 11.9912 18.1875 12.5435 18.1875C13.0957 18.1875 13.5435 17.7398 13.5435 17.1875H11.5435ZM8.54346 17.1875V12.3959H6.54346V17.1875H8.54346ZM8.54346 12.3959C8.54346 12.2515 8.60289 12.1041 8.72352 11.9884L7.33971 10.5445C6.83522 11.0279 6.54346 11.693 6.54346 12.3959H8.54346ZM8.72352 11.9884C8.84559 11.8715 9.01991 11.7986 9.21012 11.7986V9.79865C8.51629 9.79865 7.84275 10.0624 7.33971 10.5445L8.72352 11.9884ZM9.21012 11.7986H10.8768V9.79865H9.21012V11.7986ZM10.8768 11.7986C11.067 11.7986 11.2413 11.8715 11.3634 11.9884L12.7472 10.5445C12.2442 10.0624 11.5706 9.79865 10.8768 9.79865V11.7986ZM11.3634 11.9884C11.484 12.1041 11.5435 12.2515 11.5435 12.3959H13.5435C13.5435 11.693 13.2517 11.0279 12.7472 10.5445L11.3634 11.9884ZM11.5435 12.3959V17.1875H13.5435V12.3959H11.5435Z" fill="#ABABAB" mask="url(#path-5-inside-2_426_144385)"/>
</svg>
