<svg width="117" height="22" viewBox="0 0 117 22" fill="none" xmlns="http://www.w3.org/2000/svg">
<path d="M14.6596 21.2C13.6557 21.1864 12.6578 21.0425 11.6907 20.7717C9.87641 20.2742 8.08197 19.3789 7.01163 18.4356C5.21135 16.8504 4.44982 14.5905 5.11776 12.8129C5.52134 11.7369 6.7882 9.93352 10.7327 9.93352H16.5418C16.3579 9.22781 16.1385 8.5319 15.8844 7.84849C14.4725 4.07619 12.43 2.16365 9.81324 2.16365C8.20479 2.16365 6.86072 3.00493 5.70382 4.73561C4.69547 6.24571 3.87312 8.38471 3.26133 11.0928C2.19332 15.8237 2.15707 20.6426 2.15707 20.6907L0 20.6813C0 20.476 0.0350893 15.6043 1.15105 10.6457C1.82017 7.67015 2.74663 5.28122 3.90354 3.5435C5.46987 1.19681 7.45848 0 9.81324 0C13.3717 0 16.1686 2.45111 17.9034 7.08817C18.2467 8.01853 18.5342 8.96868 18.7644 9.93352H22.5158V12.0972H19.2054C19.4611 13.5733 19.6011 15.0672 19.6241 16.5653C19.6241 18.5283 18.7608 20.0008 17.1933 20.713C16.3991 21.0721 15.5124 21.2 14.6596 21.2ZM10.7362 12.0972C8.80021 12.0972 7.48773 12.6357 7.13563 13.5756C6.78352 14.5154 7.32162 15.8296 8.4329 16.8093C9.26227 17.538 10.7631 18.2748 12.2592 18.6867C13.9133 19.1396 15.3872 19.156 16.3032 18.7442C16.8026 18.5177 17.4671 18.0401 17.4671 16.5676C17.4375 15.0674 17.2845 13.5722 17.0097 12.0972H10.7362Z" fill="url(#paint0_angular_683_151)"/>
<path d="M35.4419 16.5813C34.8215 16.5813 34.2627 16.4707 33.7656 16.2494C33.2727 16.0239 32.8817 15.6919 32.5928 15.2536C32.3081 14.8153 32.1657 14.2749 32.1657 13.6323C32.1657 13.0791 32.2677 12.6217 32.4717 12.2599C32.6756 11.8982 32.954 11.6089 33.3066 11.3918C33.6593 11.1748 34.0567 11.011 34.4986 10.9003C34.9448 10.7855 35.4058 10.7025 35.8817 10.6514C36.4554 10.5918 36.9207 10.5386 37.2776 10.4918C37.6346 10.4408 37.8938 10.3642 38.0552 10.262C38.221 10.1557 38.3038 9.99182 38.3038 9.77054V9.73224C38.3038 9.25138 38.1615 8.87903 37.8768 8.6152C37.5921 8.35136 37.182 8.21944 36.6466 8.21944C36.0814 8.21944 35.6331 8.34285 35.3017 8.58966C34.9745 8.83648 34.7535 9.12797 34.6388 9.46415L32.4844 9.15776C32.6544 8.562 32.9348 8.06412 33.3258 7.66411C33.7167 7.25985 34.1948 6.95772 34.7599 6.75771C35.3251 6.55345 35.9497 6.45132 36.6339 6.45132C37.1055 6.45132 37.5751 6.50664 38.0425 6.61729C38.5099 6.72793 38.937 6.91091 39.3237 7.16623C39.7103 7.4173 40.0205 7.75986 40.2543 8.19391C40.4922 8.62796 40.6112 9.17053 40.6112 9.8216V16.3834H38.3931V15.0366H38.3166C38.1763 15.3089 37.9788 15.5643 37.7238 15.8026C37.4731 16.0366 37.1565 16.226 36.7741 16.3707C36.3959 16.5111 35.9518 16.5813 35.4419 16.5813ZM36.0411 14.8834C36.5042 14.8834 36.9058 14.7919 37.2458 14.6089C37.5857 14.4217 37.847 14.1749 38.0297 13.8685C38.2167 13.5621 38.3102 13.2281 38.3102 12.8663V11.711C38.238 11.7706 38.1147 11.8259 37.9405 11.877C37.7705 11.928 37.5793 11.9727 37.3669 12.011C37.1544 12.0493 36.9441 12.0833 36.7358 12.1131C36.5276 12.1429 36.347 12.1685 36.194 12.1897C35.8499 12.2365 35.5418 12.3131 35.2698 12.4195C34.9979 12.5259 34.7833 12.6749 34.6261 12.8663C34.4688 13.0536 34.3902 13.2961 34.3902 13.594C34.3902 14.0196 34.5453 14.3408 34.8555 14.5579C35.1657 14.7749 35.5609 14.8834 36.0411 14.8834Z" fill="#141414"/>
<path d="M47.5313 6.57899V8.36626H41.7437V6.57899H47.5313ZM43.1906 16.3834V5.65344C43.1906 4.99385 43.3266 4.4449 43.5985 4.0066C43.8747 3.56829 44.2444 3.24062 44.7076 3.0236C45.1708 2.80657 45.685 2.69806 46.2501 2.69806C46.6495 2.69806 47.0044 2.72997 47.3146 2.79381C47.6248 2.85764 47.8542 2.91509 48.0029 2.96615L47.544 4.75342C47.4463 4.72363 47.3231 4.69384 47.1743 4.66405C47.0256 4.63001 46.8599 4.61299 46.6772 4.61299C46.248 4.61299 45.9442 4.71725 45.7657 4.92576C45.5915 5.13002 45.5044 5.42364 45.5044 5.80663V16.3834H43.1906Z" fill="#141414"/>
<path d="M53.8681 6.57899V8.36626H48.2399V6.57899H53.8681ZM49.6295 4.23H51.9368V13.4344C51.9368 13.7451 51.9836 13.9834 52.0771 14.1493C52.1748 14.3111 52.3023 14.4217 52.4595 14.4813C52.6167 14.5408 52.7909 14.5706 52.9822 14.5706C53.1266 14.5706 53.2584 14.56 53.3773 14.5387C53.5006 14.5174 53.5941 14.4983 53.6578 14.4813L54.0466 16.2877C53.9234 16.3302 53.747 16.377 53.5176 16.4281C53.2924 16.4792 53.0161 16.509 52.689 16.5175C52.111 16.5345 51.5905 16.4473 51.1273 16.2558C50.6642 16.06 50.2966 15.7579 50.0246 15.3494C49.7569 14.9409 49.6252 14.4302 49.6295 13.8174V4.23Z" fill="#141414"/>
<path d="M59.668 16.5749C58.6864 16.5749 57.8387 16.3707 57.1248 15.9621C56.4151 15.5494 55.8691 14.9664 55.4867 14.2132C55.1042 13.4557 54.913 12.5642 54.913 11.5387C54.913 10.5301 55.1042 9.645 55.4867 8.88329C55.8734 8.11731 56.413 7.52156 57.1057 7.09602C57.7983 6.66622 58.612 6.45132 59.5469 6.45132C60.1503 6.45132 60.7197 6.5492 61.2551 6.74495C61.7948 6.93644 62.2707 7.23432 62.6829 7.63858C63.0993 8.04284 63.4265 8.55775 63.6645 9.18329C63.9024 9.80458 64.0214 10.545 64.0214 11.4046V12.1131H55.9966V10.5557H61.8096C61.8054 10.1131 61.7098 9.71947 61.5228 9.37479C61.3358 9.02584 61.0745 8.75137 60.7388 8.55137C60.4074 8.35136 60.0207 8.25136 59.5787 8.25136C59.1071 8.25136 58.6928 8.36626 58.3358 8.59605C57.9789 8.82158 57.7006 9.11946 57.5008 9.48968C57.3054 9.85565 57.2055 10.2578 57.2013 10.6961V12.0557C57.2013 12.6259 57.3054 13.1153 57.5136 13.5238C57.7218 13.9281 58.0129 14.2387 58.3868 14.4557C58.7608 14.6685 59.1984 14.7749 59.6999 14.7749C60.0355 14.7749 60.3394 14.7281 60.6113 14.6345C60.8833 14.5366 61.1191 14.394 61.3188 14.2068C61.5186 14.0196 61.6694 13.7876 61.7714 13.511L63.9258 13.7536C63.7898 14.3238 63.5306 14.8217 63.1482 15.2472C62.77 15.6685 62.2856 15.9962 61.6949 16.2302C61.1042 16.46 60.4286 16.5749 59.668 16.5749Z" fill="#141414"/>
<path d="M65.6144 16.3834V6.57899H67.8517V8.21306H67.9537C68.1321 7.64709 68.4381 7.21091 68.8715 6.90452C69.3092 6.59388 69.8085 6.43856 70.3694 6.43856C70.4969 6.43856 70.6392 6.44494 70.7965 6.45771C70.9579 6.46622 71.0918 6.48111 71.198 6.50239V8.62796C71.1003 8.59392 70.9452 8.56413 70.7327 8.5386C70.5245 8.50881 70.3227 8.49392 70.1272 8.49392C69.7065 8.49392 69.3283 8.58541 68.9926 8.76839C68.6612 8.94712 68.3999 9.19606 68.2086 9.51521C68.0174 9.83437 67.9218 10.2025 67.9218 10.6195V16.3834H65.6144Z" fill="#141414"/>
<path d="M79.4981 8.77477L78.1468 9.15776C78.0618 8.93222 77.9364 8.71307 77.7707 8.5003C77.6092 8.28328 77.3883 8.10455 77.1078 7.96412C76.8274 7.82369 76.4683 7.75348 76.0306 7.75348C75.4315 7.75348 74.9322 7.89178 74.5327 8.16838C74.1376 8.44072 73.94 8.78754 73.94 9.20882C73.94 9.5833 74.0759 9.87905 74.3479 10.0961C74.6199 10.3131 75.0448 10.494 75.6227 10.6386L77.076 10.9961C77.9513 11.2089 78.6036 11.5344 79.0328 11.9727C79.4619 12.4068 79.6765 12.9663 79.6765 13.6515C79.6765 14.2132 79.5151 14.7153 79.1921 15.1579C78.8734 15.6004 78.4272 15.9494 77.8536 16.2047C77.2799 16.46 76.6128 16.5877 75.8522 16.5877C74.8536 16.5877 74.0271 16.3707 73.3727 15.9366C72.7183 15.5026 72.304 14.8685 72.1298 14.0345L73.5575 13.677C73.6935 14.2047 73.9506 14.6004 74.3288 14.8643C74.7112 15.1281 75.2105 15.26 75.8267 15.26C76.5278 15.26 77.0845 15.1111 77.4966 14.8132C77.9131 14.5111 78.1213 14.1493 78.1213 13.7281C78.1213 13.3876 78.0023 13.1025 77.7643 12.8727C77.5264 12.6387 77.1609 12.4642 76.668 12.3493L75.0363 11.9663C74.1397 11.7536 73.481 11.4238 73.0604 10.9769C72.6439 10.5259 72.4357 9.96203 72.4357 9.28542C72.4357 8.73222 72.5908 8.24285 72.901 7.81731C73.2155 7.39177 73.6425 7.05772 74.1822 6.81516C74.7261 6.5726 75.3422 6.45132 76.0306 6.45132C76.9995 6.45132 77.7601 6.66409 78.3125 7.08963C78.8692 7.51517 79.2643 8.07689 79.4981 8.77477Z" fill="#141414"/>
<path d="M83.0861 10.4854V16.3834H81.5819V3.31084H83.0861V8.11093H83.2136C83.4431 7.60454 83.7873 7.2024 84.2462 6.90452C84.7094 6.60239 85.3255 6.45132 86.0946 6.45132C86.7618 6.45132 87.3461 6.58537 87.8475 6.85346C88.3489 7.11729 88.7377 7.52369 89.0139 8.07263C89.2944 8.61732 89.4346 9.31095 89.4346 10.1535V16.3834H87.9304V10.2557C87.9304 9.47691 87.7285 8.87478 87.3248 8.44924C86.9254 8.01944 86.3709 7.80454 85.6612 7.80454C85.1683 7.80454 84.7264 7.9088 84.3354 8.11731C83.9488 8.32583 83.6428 8.63009 83.4176 9.0301C83.1966 9.43011 83.0861 9.91522 83.0861 10.4854Z" fill="#141414"/>
<path d="M95.8049 16.5877C94.9211 16.5877 94.1456 16.377 93.4784 15.9558C92.8155 15.5345 92.2971 14.9451 91.9232 14.1876C91.5535 13.4302 91.3686 12.5451 91.3686 11.5323C91.3686 10.511 91.5535 9.61947 91.9232 8.85775C92.2971 8.09604 92.8155 7.50454 93.4784 7.08325C94.1456 6.66197 94.9211 6.45132 95.8049 6.45132C96.6888 6.45132 97.4622 6.66197 98.125 7.08325C98.7922 7.50454 99.3106 8.09604 99.6803 8.85775C100.054 9.61947 100.241 10.511 100.241 11.5323C100.241 12.5451 100.054 13.4302 99.6803 14.1876C99.3106 14.9451 98.7922 15.5345 98.125 15.9558C97.4622 16.377 96.6888 16.5877 95.8049 16.5877ZM95.8049 15.2345C96.4763 15.2345 97.0287 15.0621 97.4622 14.7174C97.8956 14.3728 98.2164 13.9196 98.4246 13.3578C98.6328 12.7961 98.7369 12.1876 98.7369 11.5323C98.7369 10.8769 98.6328 10.2663 98.4246 9.70032C98.2164 9.13436 97.8956 8.6769 97.4622 8.32796C97.0287 7.97901 96.4763 7.80454 95.8049 7.80454C95.1335 7.80454 94.5811 7.97901 94.1477 8.32796C93.7143 8.6769 93.3934 9.13436 93.1852 9.70032C92.977 10.2663 92.8729 10.8769 92.8729 11.5323C92.8729 12.1876 92.977 12.7961 93.1852 13.3578C93.3934 13.9196 93.7143 14.3728 94.1477 14.7174C94.5811 15.0621 95.1335 15.2345 95.8049 15.2345Z" fill="#141414"/>
<path d="M106.156 16.5877C105.272 16.5877 104.496 16.377 103.829 15.9558C103.166 15.5345 102.648 14.9451 102.274 14.1876C101.904 13.4302 101.72 12.5451 101.72 11.5323C101.72 10.511 101.904 9.61947 102.274 8.85775C102.648 8.09604 103.166 7.50454 103.829 7.08325C104.496 6.66197 105.272 6.45132 106.156 6.45132C107.04 6.45132 107.813 6.66197 108.476 7.08325C109.143 7.50454 109.661 8.09604 110.031 8.85775C110.405 9.61947 110.592 10.511 110.592 11.5323C110.592 12.5451 110.405 13.4302 110.031 14.1876C109.661 14.9451 109.143 15.5345 108.476 15.9558C107.813 16.377 107.04 16.5877 106.156 16.5877ZM106.156 15.2345C106.827 15.2345 107.38 15.0621 107.813 14.7174C108.246 14.3728 108.567 13.9196 108.775 13.3578C108.984 12.7961 109.088 12.1876 109.088 11.5323C109.088 10.8769 108.984 10.2663 108.775 9.70032C108.567 9.13436 108.246 8.6769 107.813 8.32796C107.38 7.97901 106.827 7.80454 106.156 7.80454C105.484 7.80454 104.932 7.97901 104.499 8.32796C104.065 8.6769 103.744 9.13436 103.536 9.70032C103.328 10.2663 103.224 10.8769 103.224 11.5323C103.224 12.1876 103.328 12.7961 103.536 13.3578C103.744 13.9196 104.065 14.3728 104.499 14.7174C104.932 15.0621 105.484 15.2345 106.156 15.2345Z" fill="#141414"/>
<path d="M116.787 6.57899V7.85561H111.713V6.57899H116.787ZM113.192 4.23H114.696V13.5749C114.696 14.0004 114.758 14.3196 114.881 14.5323C115.009 14.7408 115.17 14.8813 115.366 14.9536C115.565 15.0217 115.776 15.0557 115.997 15.0557C116.162 15.0557 116.298 15.0472 116.405 15.0302C116.511 15.0089 116.596 14.9919 116.66 14.9792L116.966 16.3324C116.864 16.3707 116.721 16.409 116.538 16.4473C116.356 16.4898 116.124 16.5111 115.844 16.5111C115.419 16.5111 115.002 16.4196 114.594 16.2366C114.191 16.0536 113.855 15.7749 113.587 15.4004C113.324 15.026 113.192 14.5536 113.192 13.9834V4.23Z" fill="#141414"/>
<defs>
<radialGradient id="paint0_angular_683_151" cx="0" cy="0" r="1" gradientUnits="userSpaceOnUse" gradientTransform="translate(12.5876 14.4302) rotate(-165.806) scale(13.4411 12.0533)">
<stop stop-color="#7E68B0"/>
<stop offset="0.184461" stop-color="#008AD2"/>
<stop offset="0.353157" stop-color="#21B24B"/>
<stop offset="0.519702" stop-color="#FFC40E"/>
<stop offset="0.687523" stop-color="#F6821F"/>
<stop offset="0.853193" stop-color="#EF4023"/>
<stop offset="1" stop-color="#7E68B0"/>
</radialGradient>
</defs>
</svg>
