<svg width="14" height="15" viewBox="0 0 14 15" fill="none" xmlns="http://www.w3.org/2000/svg">
<path d="M6.6415 4.12584C4.75726 4.12584 3.23742 5.64601 3.23742 7.53067C3.23742 9.41533 4.75726 10.9355 6.6415 10.9355C8.52573 10.9355 10.0456 9.41533 10.0456 7.53067C10.0456 5.64601 8.52573 4.12584 6.6415 4.12584ZM6.6415 9.74426C5.42385 9.74426 4.4284 8.75155 4.4284 7.53067C4.4284 6.30979 5.42089 5.31708 6.6415 5.31708C7.8621 5.31708 8.85459 6.30979 8.85459 7.53067C8.85459 8.75155 7.85914 9.74426 6.6415 9.74426ZM10.9788 3.98656C10.9788 4.42809 10.6233 4.78073 10.1848 4.78073C9.74338 4.78073 9.39083 4.42513 9.39083 3.98656C9.39083 3.54799 9.74634 3.1924 10.1848 3.1924C10.6233 3.1924 10.9788 3.54799 10.9788 3.98656ZM13.2334 4.79258C13.183 3.72876 12.9401 2.78643 12.1609 2.01004C11.3847 1.23366 10.4426 0.990667 9.37897 0.937327C8.2828 0.875098 4.99723 0.875098 3.90106 0.937327C2.84043 0.987704 1.89831 1.23069 1.11914 2.00708C0.339963 2.78346 0.0999891 3.72579 0.0466616 4.78962C-0.0155539 5.88604 -0.0155539 9.17234 0.0466616 10.2688C0.0970264 11.3326 0.339963 12.2749 1.11914 13.0513C1.89831 13.8277 2.83747 14.0707 3.90106 14.124C4.99723 14.1862 8.2828 14.1862 9.37897 14.124C10.4426 14.0736 11.3847 13.8306 12.1609 13.0513C12.9371 12.2749 13.18 11.3326 13.2334 10.2688C13.2956 9.17234 13.2956 5.889 13.2334 4.79258ZM11.8172 11.4452C11.5861 12.026 11.1388 12.4735 10.5551 12.7076C9.68116 13.0543 7.60732 12.9743 6.6415 12.9743C5.67568 12.9743 3.59887 13.0513 2.72785 12.7076C2.14717 12.4764 1.69981 12.029 1.46577 11.4452C1.11914 10.571 1.19913 8.49671 1.19913 7.53067C1.19913 6.56463 1.1221 4.48736 1.46577 3.61615C1.69685 3.03534 2.14421 2.58789 2.72785 2.35378C3.60183 2.00708 5.67568 2.08709 6.6415 2.08709C7.60732 2.08709 9.68413 2.01004 10.5551 2.35378C11.1358 2.58492 11.5832 3.03238 11.8172 3.61615C12.1639 4.49032 12.0839 6.56463 12.0839 7.53067C12.0839 8.49671 12.1639 10.574 11.8172 11.4452Z" fill="#A4A8B7"/>
</svg>
